POSTER: 
http://imgh.us/ltDSl.jpg

General
Complete name : /mnt/sdc1/rahulraj/files/Department (2012) Hindi 1CD DVD Rip XviD MP3 Subs BWTV/Department (2012) Hindi 1CD DVD Rip XviD MP3 Subs BWTV.avi
Format : AVI
Format/Info : Audio Video Interleave
File size : 698 MiB
Duration : 2h 24mn
Overall bit rate : 677 Kbps
Writing library : VirtualDub build 32661/release

Video
ID : 0
Format : MPEG-4 Visual
Format profile : Advanced Simple@L5
Format settings, BVOP : 2
Format settings, QPel : Yes
Format settings, GMC : No warppoints
Format settings, Matrix : Default (H.263)
Codec ID : XVID
Codec ID/Hint : XviD
Duration : 2h 24mn
Bit rate : 571 Kbps
Width : 608 pixels
Height : 256 pixels
Display aspect ratio : 2.40:1
Frame rate : 23.976 fps
Color space : YUV
Chroma subsampling : 4:2:0
Bit depth : 8 bits
Scan type : Progressive
Compression mode : Lossy
Bits/(Pixel*Frame) : 0.153
Stream size : 589 MiB (84%)
Writing library : XviD 1.2.1 (UTC 2008-12-04)

Audio
ID : 1
Format : MPEG Audio
Format version : Version 1
Format profile : Layer 3
Mode : Joint stereo
Mode extension : MS Stereo
Codec ID : 55
Codec ID/Hint : MP3
Duration : 2h 24mn
Bit rate mode : Constant
Bit rate : 96.0 Kbps
Channel(s) : 2 channels
Sampling rate : 32.0 KHz
Compression mode : Lossy
Stream size : 99.0 MiB (14%)
Alignment : Split accross interleaves
Interleave, duration : 42 ms (1.00 video frame)
Interleave, preload duration : 500 ms
Writing library : LAME3.99r
Encoding settings : -m j -V 4 -q 2 -lowpass 15.1 -b 96

SCREENS: 
http://picturestack.com/112/438/4Dw1xAq.png 
http://picturestack.com/112/438/nw12vYQ.png 
http://picturestack.com/112/438/hvx35gU.png 
http://picturestack.com/112/438/tHR4gOr.png 
http://picturestack.com/112/438/Otd5RVC.png